<?xml version="1.0" standalone="no"?>
<!DOCTYPE svg PUBLIC "-//W3C//DTD SVG 20010904//EN"
 "http://www.w3.org/TR/2001/REC-SVG-20010904/DTD/svg10.dtd">
<svg version="1.0" xmlns="http://www.w3.org/2000/svg"
 width="524.000000pt" height="81.000000pt" viewBox="0 0 524.000000 81.000000"
 preserveAspectRatio="xMidYMid meet">

<g transform="translate(0.000000,81.000000) scale(0.100000,-0.100000)"
fill="#000000" stroke="none">
<path d="M4705 660 c-77 -44 -146 -87 -152 -97 -16 -21 -18 -315 -3 -342 10
-20 287 -181 310 -181 23 0 300 161 310 181 6 10 10 86 10 169 0 83 -4 159
-10 169 -10 20 -287 181 -311 181 -8 0 -77 -36 -154 -80z m233 -104 c28 -14
68 -54 61 -59 -47 -34 -60 -38 -81 -22 -65 45 -158 -5 -158 -85 0 -80 93 -130
158 -85 21 16 34 12 81 -22 7 -5 -33 -45 -61 -59 -35 -18 -121 -18 -156 0 -31
16 -74 61 -91 93 -15 30 -14 119 3 151 15 29 59 73 91 90 28 16 121 15 153 -2z
m102 -101 c0 -8 7 -15 15 -15 8 0 15 7 15 15 0 23 22 18 50 -11 23 -25 24 -27
5 -40 -18 -14 -18 -14 0 -28 19 -13 18 -15 -5 -40 -28 -29 -50 -34 -50 -11 0
8 -7 15 -15 15 -8 0 -15 -7 -15 -15 0 -8 -7 -15 -15 -15 -8 0 -15 7 -15 15 0
8 -7 15 -15 15 -8 0 -15 9 -15 20 0 11 7 20 15 20 8 0 15 5 15 10 0 6 -7 10
-15 10 -8 0 -15 9 -15 20 0 11 7 20 15 20 8 0 15 7 15 15 0 8 7 15 15 15 8 0
15 -7 15 -15z"/>
<path d="M5040 390 c0 -5 7 -10 15 -10 8 0 15 5 15 10 0 6 -7 10 -15 10 -8 0
-15 -4 -15 -10z"/>
<path d="M4055 713 c-31 -7 -45 -33 -45 -80 l0 -43 70 0 c68 0 70 -1 70 -25
l0 -25 -131 0 c-72 0 -139 -5 -149 -10 -36 -19 -52 -131 -29 -201 16 -47 44
-69 90 -69 l39 0 0 58 c1 95 36 122 158 122 65 0 84 4 106 21 25 20 26 24 26
119 0 95 -1 99 -26 119 -21 17 -40 21 -93 20 -36 -1 -75 -3 -86 -6z m24 -57
c13 -16 4 -46 -14 -46 -7 0 -18 7 -25 15 -10 12 -10 18 0 30 15 19 24 19 39 1z"/>
<path d="M3110 420 l0 -290 290 0 290 0 0 290 0 290 -290 0 -290 0 0 -290z
m350 0 c0 -28 -3 -30 -35 -30 l-34 0 -3 -117 -3 -118 -35 0 -35 0 -3 118 -3
117 -34 0 c-32 0 -35 2 -35 30 l0 30 110 0 110 0 0 -30z m190 -5 c0 -33 -1
-34 -27 -24 -36 13 -75 3 -71 -18 2 -9 23 -29 48 -43 58 -34 76 -68 60 -115
-15 -46 -38 -57 -113 -53 l-62 3 -3 37 -3 36 37 -13 c41 -14 74 -9 74 11 0 7
-25 29 -55 49 -38 24 -55 42 -57 57 -5 85 17 108 108 108 l64 0 0 -35z"/>
<path d="M124 653 c3 -27 11 -109 16 -184 18 -218 27 -300 36 -309 8 -8 69
-26 172 -53 44 -11 57 -9 202 31 63 17 65 18 68 52 1 19 9 105 17 190 8 85 17
192 21 238 l6 82 -272 0 -272 0 6 -47z m482 -50 c-3 -32 -13 -136 -21 -232 -8
-96 -16 -175 -18 -177 -1 -1 -38 -12 -81 -24 -44 -12 -83 -23 -88 -26 -4 -3
-8 12 -8 33 l0 38 -65 20 c-58 17 -65 22 -65 45 0 14 -3 35 -6 48 -6 20 -3 22
35 22 34 0 41 -3 41 -19 0 -12 11 -23 30 -30 l30 -10 0 45 0 44 -70 0 c-67 0
-70 1 -70 23 0 13 -3 58 -6 100 l-7 77 77 0 76 0 0 33 c0 19 3 37 7 40 3 4 53
7 111 7 l105 0 -7 -57z"/>
<path d="M320 480 c0 -28 3 -30 35 -30 32 0 35 2 35 30 0 28 -3 30 -35 30 -32
0 -35 -2 -35 -30z"/>
<path d="M844 643 c3 -32 11 -121 17 -198 12 -162 25 -285 30 -289 13 -8 199
-56 220 -56 13 0 68 12 122 27 79 22 98 31 102 48 2 11 11 103 20 205 8 102
18 215 21 253 l6 67 -272 0 -273 0 7 -57z m481 -35 c-14 -101 -35 -317 -35
-359 0 -39 -4 -47 -25 -57 -14 -7 -34 -12 -44 -12 -10 0 -35 -7 -54 -15 -51
-21 -57 -19 -57 18 0 30 -3 33 -60 51 -33 10 -62 21 -64 25 -2 3 -7 25 -11 49
l-7 42 37 0 c28 0 38 -5 42 -19 3 -11 18 -24 34 -30 l29 -10 0 45 c0 43 0 44
-34 44 -35 0 -46 13 -46 51 0 16 7 19 40 19 38 0 40 2 40 30 l0 30 -75 0 -75
0 0 35 0 35 75 0 75 0 0 35 0 35 111 0 110 0 -6 -42z"/>
<path d="M1820 330 l0 -100 -25 0 c-14 0 -25 5 -25 10 0 15 -26 12 -39 -4 -15
-18 -5 -41 25 -55 43 -19 81 -14 103 15 18 23 21 41 21 130 l0 104 -30 0 -30
0 0 -100z"/>
<path d="M1942 414 c-16 -11 -22 -25 -22 -55 0 -37 3 -41 56 -75 30 -19 53
-41 51 -47 -6 -19 -56 -21 -63 -3 -8 21 -28 20 -45 0 -11 -14 -10 -20 14 -40
51 -43 137 -26 151 30 10 42 -10 73 -64 101 -60 30 -61 50 -2 50 50 0 60 9 37
35 -22 24 -81 27 -113 4z"/>
</g>
</svg>
